{"title":"John.Carter.2012.BRRIP.720P.H264-ZEKTORM","uid":7295936,"size":2853321897,"categoryP":"video","categoryS":"hd___movies","magnet":"?xt=urn:btih:383328a3a8b0d7661c1915cccf52c43a678b5ecd&amp;dn=John.Carter.2012.BRRIP.720P.H264-ZEKTORM&amp;tr=udp%3A%2F%2Ftracker.openbittorrent.com%3A80&amp;tr=udp%3A%2F%2Fopen.demonii.com%3A1337&amp;tr=udp%3A%2F%2Ftracker.coppersurfer.tk%3A6969&amp;tr=udp%3A%2F%2Fexodus.desync.com%3A6969","seeders":0,"leechers":1,"uploader":"blowley","files":5,"time":1337884063,"description":"Title                            : John Carter\nYear                             : 2012\nGenre                            : Action | Adventure | Fantasy\niMDB URL                         : http://www.imdb.com/title/tt0401729/\n\nComplete name                    : John.Carter.2012.BRRIP.720P.H264-ZEKTORM.mp4\nFormat                           : MPEG-4\nFormat profile                   : Base Media\nCodec ID                         : isom\nFile size                        : 2.66 GiB\nDuration                         : 2h 12mn\nOverall bit rate                 : 2881 Kbps\nSubtitles                        : English (Format: srt)\n\nVideo\nID                               : 1\nFormat                           : AVC\nFormat/Info                      : Advanced Video Codec\nFormat profile                   : &lt;a class=&quot;__cf_email__&quot; href=&quot;/cdn-cgi/l/email-protection&quot; data-cfemail=&quot;470f2e202f070b736977&quot;&gt;[email&amp;#160;protected]&lt;/a&gt;&lt;script cf-hash='f9e31' type=&quot;text/javascript&quot;&gt;\n/* &lt;![CDATA[ */!function(){try{var t=&quot;currentScript&quot;in document?document.currentScript:function(){for(var t=document.getElementsByTagName(&quot;script&quot;),e=t.length;e--;)if(t[e].getAttribute(&quot;cf-hash&quot;))return t[e]}();if(t&amp;&amp;t.previousSibling){var e,r,n,i,c=t.previousSibling,a=c.getAttribute(&quot;data-cfemail&quot;);if(a){for(e=&quot;&quot;,r=parseInt(a.substr(0,2),16),n=2;a.length-n;n+=2)i=parseInt(a.substr(n,2),16)^r,e+=String.fromCharCode(i);e=document.createTextNode(e),c.parentNode.replaceChild(e,c)}}}catch(u){}}();/* ]]&gt; */&lt;/script&gt;\nFormat settings, CABAC           : Yes\nFormat settings, ReFrames        : 12 frames\nCodec ID                         : avc1\nCodec ID/Info                    : Advanced Video Coding\nDuration                         : 2h 12mn\nBit rate mode                    : Variable\nBit rate                         : 2433 Kbps\nWidth                            : 1280 pixels\nHeight                           : 528 pixels\nDisplay aspect ratio             : 2.424\nFrame rate mode                  : Constant\nFrame rate                       : 23.976 fps\nResolution                       : 24 bits\nColorimetry                      : 4:2:0\nScan type                        : Progressive\nBits/(Pixel*Frame)               : 0.150\nStream size                      : 2.24 GiB (84%)\nTitle                            : Video\nWriting library                  : x264\n\nAudio\nID                               : 2\nFormat                           : AAC\nFormat/Info                      : Advanced Audio Codec\nFormat version                   : Version 4\nFormat profile                   : LC\nFormat settings, SBR             : No\nCodec ID                         : 40\nDuration                         : 2h 12mn\nBit rate mode                    : Variable\nBit rate                         : 444 Kbps\nMaximum bit rate                 : 569 Kbps\nChannel(s)                       : 6 channels\nChannel positions                : Front: L C R, Rear: L R, LFE\nSampling rate                    : 48.0 KHz\nResolution                       : 16 bits\nStream size                      : 420 MiB (15%)\nLanguage                         : English\n\n\nScreenshots:\n\n[img]http://img444.imageshack.us/img444/3397/snapjc1.png[/img]\n\n[img]http://img28.imageshack.us/img28/4089/snapjc2.png[/img]\n","torrent":{"xt":"urn:btih:383328a3a8b0d7661c1915cccf52c43a678b5ecd","amp;dn":"John.Carter.2012.BRRIP.720P.H264-ZEKTORM","amp;tr":["udp%3A%2F%2Ftracker.openbittorrent.com%3A80","udp%3A%2F%2Fopen.demonii.com%3A1337","udp%3A%2F%2Ftracker.coppersurfer.tk%3A6969","udp%3A%2F%2Fexodus.desync.com%3A6969"],"infoHash":"383328a3a8b0d7661c1915cccf52c43a678b5ecd","infoHashBuffer":{"type":"Buffer","data":[56,51,40,163,168,176,215,102,28,25,21,204,207,82,196,58,103,139,94,205]},"announce":[],"urlList":[]}}